<mxfile host="app.diagrams.net" agent="Mozilla/5.0 (X11; Linux x86_64) AppleWebKit/537.36 (KHTML, like Gecko) Chrome/140.0.0.0 Safari/537.36" version="28.2.7">
  <diagram name="Page-1" id="jCtu_2u-H5CvtR6rhorh">
    <mxGraphModel dx="574" dy="2714" grid="1" gridSize="10" guides="1" tooltips="1" connect="1" arrows="1" fold="1" page="1" pageScale="1" pageWidth="827" pageHeight="1169" background="none" math="0" shadow="0" adaptiveColors="auto">
      <root>
        <mxCell id="0" />
        <mxCell id="1" parent="0" />
        <mxCell id="Do4_PR0F2J17wUxJ_zKX-5" style="edgeStyle=orthogonalEdgeStyle;rounded=0;orthogonalLoop=1;jettySize=auto;html=1;entryX=0.5;entryY=0;entryDx=0;entryDy=0;" parent="1" source="Do4_PR0F2J17wUxJ_zKX-1" target="Do4_PR0F2J17wUxJ_zKX-4" edge="1">
          <mxGeometry relative="1" as="geometry" />
        </mxCell>
        <mxCell id="Do4_PR0F2J17wUxJ_zKX-1" value="5V 5A USB-C" style="rounded=1;whiteSpace=wrap;html=1;" parent="1" vertex="1">
          <mxGeometry x="397" y="-1950" width="94" height="30" as="geometry" />
        </mxCell>
        <mxCell id="Do4_PR0F2J17wUxJ_zKX-7" style="edgeStyle=orthogonalEdgeStyle;rounded=0;orthogonalLoop=1;jettySize=auto;html=1;exitX=0;exitY=0.5;exitDx=0;exitDy=0;" parent="1" source="Do4_PR0F2J17wUxJ_zKX-4" target="Do4_PR0F2J17wUxJ_zKX-6" edge="1">
          <mxGeometry relative="1" as="geometry" />
        </mxCell>
        <mxCell id="Do4_PR0F2J17wUxJ_zKX-16" style="edgeStyle=orthogonalEdgeStyle;rounded=0;orthogonalLoop=1;jettySize=auto;html=1;entryX=0.75;entryY=0;entryDx=0;entryDy=0;" parent="1" source="Do4_PR0F2J17wUxJ_zKX-4" target="Do4_PR0F2J17wUxJ_zKX-12" edge="1">
          <mxGeometry relative="1" as="geometry" />
        </mxCell>
        <mxCell id="Do4_PR0F2J17wUxJ_zKX-4" value="&lt;a href=&quot;https://thepihut.com/products/pololu-usb-2-0-type-c-connector-breakout-board-usb07b&quot;&gt;USB-C breakout&lt;/a&gt;" style="rounded=1;whiteSpace=wrap;html=1;" parent="1" vertex="1">
          <mxGeometry x="390.5" y="-1880" width="107" height="30" as="geometry" />
        </mxCell>
        <mxCell id="Do4_PR0F2J17wUxJ_zKX-6" value="&lt;a href=&quot;https://thepihut.com/products/usb-diy-slim-connector-shell-microb-plug&quot;&gt;DIY micro USB cable&lt;/a&gt;" style="rounded=1;whiteSpace=wrap;html=1;" parent="1" vertex="1">
          <mxGeometry x="190" y="-1885" width="110" height="40" as="geometry" />
        </mxCell>
        <mxCell id="Do4_PR0F2J17wUxJ_zKX-15" value="" style="edgeStyle=orthogonalEdgeStyle;rounded=0;orthogonalLoop=1;jettySize=auto;html=1;shape=link;exitX=1.02;exitY=0.1;exitDx=0;exitDy=0;exitPerimeter=0;entryX=-0.008;entryY=0.074;entryDx=0;entryDy=0;entryPerimeter=0;" parent="1" source="Do4_PR0F2J17wUxJ_zKX-10" target="Do4_PR0F2J17wUxJ_zKX-12" edge="1">
          <mxGeometry relative="1" as="geometry" />
        </mxCell>
        <mxCell id="Do4_PR0F2J17wUxJ_zKX-43" style="edgeStyle=orthogonalEdgeStyle;rounded=0;orthogonalLoop=1;jettySize=auto;html=1;exitX=1;exitY=1;exitDx=0;exitDy=0;" parent="1" source="Do4_PR0F2J17wUxJ_zKX-10" edge="1">
          <mxGeometry relative="1" as="geometry">
            <mxPoint x="390" y="-1750" as="targetPoint" />
            <Array as="points">
              <mxPoint x="300" y="-1770" />
              <mxPoint x="350" y="-1770" />
              <mxPoint x="350" y="-1750" />
            </Array>
          </mxGeometry>
        </mxCell>
        <mxCell id="SMvUj8hspn3SAbQshSrD-2" style="edgeStyle=orthogonalEdgeStyle;rounded=0;orthogonalLoop=1;jettySize=auto;html=1;" edge="1" parent="1" source="Do4_PR0F2J17wUxJ_zKX-10" target="SMvUj8hspn3SAbQshSrD-1">
          <mxGeometry relative="1" as="geometry">
            <Array as="points">
              <mxPoint x="270" y="-1737" />
              <mxPoint x="240" y="-1737" />
            </Array>
          </mxGeometry>
        </mxCell>
        <mxCell id="Do4_PR0F2J17wUxJ_zKX-10" value="&lt;a href=&quot;https://thepihut.com/products/raspberry-pi-pico-2&quot;&gt;pi pico 2&lt;/a&gt;" style="rounded=0;whiteSpace=wrap;html=1;rotation=0;" parent="1" vertex="1">
          <mxGeometry x="240" y="-1800" width="60" height="35" as="geometry" />
        </mxCell>
        <mxCell id="Do4_PR0F2J17wUxJ_zKX-11" style="edgeStyle=orthogonalEdgeStyle;rounded=0;orthogonalLoop=1;jettySize=auto;html=1;entryX=0.318;entryY=0.071;entryDx=0;entryDy=0;entryPerimeter=0;" parent="1" source="Do4_PR0F2J17wUxJ_zKX-6" target="Do4_PR0F2J17wUxJ_zKX-10" edge="1">
          <mxGeometry relative="1" as="geometry" />
        </mxCell>
        <mxCell id="Do4_PR0F2J17wUxJ_zKX-29" value="" style="edgeStyle=orthogonalEdgeStyle;rounded=0;orthogonalLoop=1;jettySize=auto;html=1;shape=link;" parent="1" source="Do4_PR0F2J17wUxJ_zKX-12" target="Do4_PR0F2J17wUxJ_zKX-23" edge="1">
          <mxGeometry relative="1" as="geometry" />
        </mxCell>
        <mxCell id="Do4_PR0F2J17wUxJ_zKX-30" style="edgeStyle=orthogonalEdgeStyle;rounded=0;orthogonalLoop=1;jettySize=auto;html=1;entryX=0;entryY=0.5;entryDx=0;entryDy=0;shape=link;" parent="1" source="Do4_PR0F2J17wUxJ_zKX-12" target="Do4_PR0F2J17wUxJ_zKX-20" edge="1">
          <mxGeometry relative="1" as="geometry" />
        </mxCell>
        <mxCell id="Do4_PR0F2J17wUxJ_zKX-31" style="edgeStyle=orthogonalEdgeStyle;rounded=0;orthogonalLoop=1;jettySize=auto;html=1;entryX=0;entryY=0.5;entryDx=0;entryDy=0;shape=link;" parent="1" source="Do4_PR0F2J17wUxJ_zKX-12" target="Do4_PR0F2J17wUxJ_zKX-22" edge="1">
          <mxGeometry relative="1" as="geometry" />
        </mxCell>
        <mxCell id="Do4_PR0F2J17wUxJ_zKX-32" style="edgeStyle=orthogonalEdgeStyle;rounded=0;orthogonalLoop=1;jettySize=auto;html=1;entryX=0;entryY=0.5;entryDx=0;entryDy=0;shape=link;" parent="1" source="Do4_PR0F2J17wUxJ_zKX-12" target="Do4_PR0F2J17wUxJ_zKX-21" edge="1">
          <mxGeometry relative="1" as="geometry" />
        </mxCell>
        <mxCell id="Do4_PR0F2J17wUxJ_zKX-33" style="edgeStyle=orthogonalEdgeStyle;rounded=0;orthogonalLoop=1;jettySize=auto;html=1;entryX=0;entryY=0.5;entryDx=0;entryDy=0;shape=link;" parent="1" source="Do4_PR0F2J17wUxJ_zKX-12" target="Do4_PR0F2J17wUxJ_zKX-19" edge="1">
          <mxGeometry relative="1" as="geometry" />
        </mxCell>
        <mxCell id="Do4_PR0F2J17wUxJ_zKX-12" value="&lt;div&gt;&lt;a href=&quot;https://thepihut.com/products/adafruit-16-channel-12-bit-pwm-servo-driver-i2c-interface-pca9685&quot;&gt;motor driver&lt;/a&gt;&lt;/div&gt;" style="rounded=0;whiteSpace=wrap;html=1;" parent="1" vertex="1">
          <mxGeometry x="390.5" y="-1780" width="90" height="30" as="geometry" />
        </mxCell>
        <mxCell id="Do4_PR0F2J17wUxJ_zKX-24" style="edgeStyle=orthogonalEdgeStyle;rounded=0;orthogonalLoop=1;jettySize=auto;html=1;" parent="1" source="Do4_PR0F2J17wUxJ_zKX-19" target="Do4_PR0F2J17wUxJ_zKX-21" edge="1">
          <mxGeometry relative="1" as="geometry" />
        </mxCell>
        <mxCell id="Do4_PR0F2J17wUxJ_zKX-19" value="&lt;a href=&quot;https://thepihut.com/products/towerpro-servo-motor-sg90-digital&quot;&gt;Servo&lt;/a&gt;" style="shape=process;whiteSpace=wrap;html=1;backgroundOutline=1;" parent="1" vertex="1">
          <mxGeometry x="540" y="-1660" width="60" height="35" as="geometry" />
        </mxCell>
        <mxCell id="Do4_PR0F2J17wUxJ_zKX-20" value="&lt;a href=&quot;https://thepihut.com/products/towerpro-servo-motor-sg90-digital&quot;&gt;Servo&lt;/a&gt;" style="shape=process;whiteSpace=wrap;html=1;backgroundOutline=1;" parent="1" vertex="1">
          <mxGeometry x="540" y="-1800" width="60" height="35" as="geometry" />
        </mxCell>
        <mxCell id="Do4_PR0F2J17wUxJ_zKX-21" value="&lt;a href=&quot;https://thepihut.com/products/towerpro-servo-motor-sg90-digital&quot;&gt;Servo&lt;/a&gt;" style="shape=process;whiteSpace=wrap;html=1;backgroundOutline=1;" parent="1" vertex="1">
          <mxGeometry x="540" y="-1695" width="60" height="35" as="geometry" />
        </mxCell>
        <mxCell id="Do4_PR0F2J17wUxJ_zKX-22" value="&lt;a href=&quot;https://thepihut.com/products/towerpro-servo-motor-sg90-digital&quot;&gt;Servo&lt;/a&gt;" style="shape=process;whiteSpace=wrap;html=1;backgroundOutline=1;" parent="1" vertex="1">
          <mxGeometry x="540" y="-1730" width="60" height="35" as="geometry" />
        </mxCell>
        <mxCell id="Do4_PR0F2J17wUxJ_zKX-23" value="&lt;a href=&quot;https://thepihut.com/products/towerpro-servo-motor-sg90-digital&quot;&gt;Servo&lt;/a&gt;" style="shape=process;whiteSpace=wrap;html=1;backgroundOutline=1;" parent="1" vertex="1">
          <mxGeometry x="540" y="-1765" width="60" height="35" as="geometry" />
        </mxCell>
        <mxCell id="Do4_PR0F2J17wUxJ_zKX-36" value="" style="endArrow=classic;html=1;rounded=0;exitX=0;exitY=1;exitDx=0;exitDy=0;entryX=1;entryY=1;entryDx=0;entryDy=0;" parent="1" source="Do4_PR0F2J17wUxJ_zKX-37" target="Do4_PR0F2J17wUxJ_zKX-37" edge="1">
          <mxGeometry width="50" height="50" relative="1" as="geometry">
            <mxPoint x="80" y="-2040" as="sourcePoint" />
            <mxPoint x="150" y="-2040" as="targetPoint" />
          </mxGeometry>
        </mxCell>
        <mxCell id="Do4_PR0F2J17wUxJ_zKX-37" value="Power" style="text;html=1;whiteSpace=wrap;strokeColor=none;fillColor=none;align=center;verticalAlign=middle;rounded=0;" parent="1" vertex="1">
          <mxGeometry x="90" y="-2070" width="60" height="30" as="geometry" />
        </mxCell>
        <mxCell id="Do4_PR0F2J17wUxJ_zKX-41" value="" style="endArrow=none;html=1;rounded=0;shape=link;entryX=1;entryY=1;entryDx=0;entryDy=0;exitX=0;exitY=1;exitDx=0;exitDy=0;" parent="1" source="Do4_PR0F2J17wUxJ_zKX-42" target="Do4_PR0F2J17wUxJ_zKX-42" edge="1">
          <mxGeometry width="50" height="50" relative="1" as="geometry">
            <mxPoint x="100" y="-1920" as="sourcePoint" />
            <mxPoint x="150" y="-1970" as="targetPoint" />
          </mxGeometry>
        </mxCell>
        <mxCell id="Do4_PR0F2J17wUxJ_zKX-42" value="Data" style="text;html=1;whiteSpace=wrap;strokeColor=none;fillColor=none;align=center;verticalAlign=middle;rounded=0;" parent="1" vertex="1">
          <mxGeometry x="90" y="-2020" width="60" height="30" as="geometry" />
        </mxCell>
        <mxCell id="SMvUj8hspn3SAbQshSrD-5" style="edgeStyle=isometricEdgeStyle;rounded=0;orthogonalLoop=1;jettySize=auto;html=1;entryX=0.5;entryY=0;entryDx=0;entryDy=0;elbow=vertical;shape=arrow;exitX=0.5;exitY=1;exitDx=0;exitDy=0;" edge="1" parent="1" source="SMvUj8hspn3SAbQshSrD-1" target="SMvUj8hspn3SAbQshSrD-4">
          <mxGeometry relative="1" as="geometry" />
        </mxCell>
        <mxCell id="SMvUj8hspn3SAbQshSrD-1" value="&lt;a href=&quot;https://thepihut.com/products/rj45-breakout-horizontal&quot;&gt;Ethernet breakout&lt;/a&gt;" style="rounded=1;whiteSpace=wrap;html=1;" vertex="1" parent="1">
          <mxGeometry x="215" y="-1710" width="85" height="35" as="geometry" />
        </mxCell>
        <mxCell id="SMvUj8hspn3SAbQshSrD-3" style="edgeStyle=orthogonalEdgeStyle;rounded=0;orthogonalLoop=1;jettySize=auto;html=1;exitX=0.75;exitY=1;exitDx=0;exitDy=0;entryX=0.75;entryY=0;entryDx=0;entryDy=0;shape=link;" edge="1" parent="1" source="Do4_PR0F2J17wUxJ_zKX-10" target="SMvUj8hspn3SAbQshSrD-1">
          <mxGeometry relative="1" as="geometry" />
        </mxCell>
        <mxCell id="SMvUj8hspn3SAbQshSrD-4" value="&lt;a href=&quot;https://thepihut.com/products/rj45-breakout-horizontal&quot;&gt;Ethernet breakout&lt;/a&gt;" style="rounded=1;whiteSpace=wrap;html=1;" vertex="1" parent="1">
          <mxGeometry x="215" y="-1620" width="85" height="35" as="geometry" />
        </mxCell>
        <mxCell id="SMvUj8hspn3SAbQshSrD-6" style="edgeStyle=isometricEdgeStyle;rounded=0;orthogonalLoop=1;jettySize=auto;html=1;elbow=vertical;shape=arrow;exitX=0;exitY=1;exitDx=0;exitDy=0;entryX=1;entryY=1;entryDx=0;entryDy=0;" edge="1" parent="1">
          <mxGeometry relative="1" as="geometry">
            <mxPoint x="90" y="-1940" as="sourcePoint" />
            <mxPoint x="150" y="-1940" as="targetPoint" />
            <Array as="points">
              <mxPoint x="110" y="-1920" />
            </Array>
          </mxGeometry>
        </mxCell>
        <mxCell id="SMvUj8hspn3SAbQshSrD-7" value="Ethernet" style="text;html=1;whiteSpace=wrap;strokeColor=none;fillColor=none;align=center;verticalAlign=middle;rounded=0;" vertex="1" parent="1">
          <mxGeometry x="90" y="-1980" width="60" height="30" as="geometry" />
        </mxCell>
      </root>
    </mxGraphModel>
  </diagram>
</mxfile>
